<svg xmlns="http://www.w3.org/2000/svg" width="50" height="50" fill="none" viewBox="0 0 50 50">
  <g clip-path="url(#a)">
    <rect width="50" height="50" fill="#3CC5FF" rx="19"/>
    <path fill="#fff" d="M33.875 23.156h-.781v-7.031a.781.781 0 0 0-.782-.781H16.688a.781.781 0 0 0-.782.781v7.031h-.781a.781.781 0 0 0-.781.782v9.375a.781.781 0 0 0 .781.78h1.563v.782a.781.781 0 1 0 1.562 0v-.781h12.5v.781a.781.781 0 1 0 1.563 0v-.781h1.562a.781.781 0 0 0 .781-.782v-9.374a.781.781 0 0 0-.781-.782Zm-16.406-6.25H31.53v6.25h-1.56a.781.781 0 0 0-.782.782v2.343h-9.375v-2.343a.781.781 0 0 0-.78-.782H17.47v-6.25Zm2.343 10.938h9.375v1.562h-9.375v-1.562Zm13.282 4.687H15.906V24.72h2.344v5.468a.781.781 0 0 0 .781.782H29.97a.781.781 0 0 0 .781-.782V24.72h2.344v7.812Z"/>
  </g>
  <defs>
    <clipPath id="a">
      <path fill="#fff" d="M0 0h50v50H0z"/>
    </clipPath>
  </defs>
</svg>
