<svg xmlns="http://www.w3.org/2000/svg" width="154" height="57" fill="none" viewBox="0 0 154 57">
  <path fill="#000" d="M6.715.158h15.6c.326 0 .635.049.928.147.895.293 1.343.903 1.343 1.83 0 .261-.057.505-.171.733-.325.7-.976 1.123-1.953 1.27H8.448L6.74 17.517h10.156c.391 0 .75.073 1.075.22.781.357 1.172.96 1.172 1.806 0 .228-.05.456-.147.684-.293.7-.944 1.13-1.953 1.293H6.251L4.322 35.998a.4.4 0 0 1-.024.098C4.118 37.366 3.468 38 2.345 38c-.39 0-.749-.098-1.074-.293-.635-.39-.953-.985-.953-1.782 0-1.27 1.123-9.937 3.37-26.001.618-4.411.984-7.048 1.098-7.91l.049-.293C5.063.679 5.689.158 6.715.158ZM36.89 38c-3.923-.163-6.828-2.555-8.716-7.178-1.4-3.483-2.1-7.747-2.1-12.793 0-.26.017-.594.049-1 .228-3.435.863-6.584 1.904-9.449C29.721 2.958 32.114.646 35.206.646c.163 0 .334.009.513.025 2.816.179 4.223 1.815 4.223 4.907 0 3.37-1.448 7.113-4.345 11.23-1.84 2.621-3.768 4.745-5.787 6.373.554 3.092 1.164 5.411 1.832 6.958 1.237 2.864 3.076 4.296 5.517 4.296.163 0 .334-.016.513-.048.537-.098 1.286-.489 2.246-1.172.928-.635 1.652-.952 2.173-.952.228 0 .447.073.659.22.472.325.708.764.708 1.318-.032.846-.635 1.717-1.807 2.612C40.186 37.471 38.6 38 36.891 38ZM35.23 4.333c-.96.016-1.807.431-2.54 1.245-1.855 2.1-2.872 6.486-3.051 13.16.976-.994 1.953-2.165 2.93-3.516 2.701-3.695 4.052-6.812 4.052-9.35 0-.131-.032-.286-.098-.465-.26-.716-.691-1.074-1.294-1.074Zm15.258 20.459c.13-.993.293-2.857.489-5.59.016-.131.032-.253.048-.367.196-1.025.822-1.554 1.88-1.587.05 0 .106.008.171.024.88.098 1.319.782 1.319 2.051 0 .326-.033.814-.098 1.465l-.073.66c-.277 4.41-.415 7.201-.415 8.373 0 .423.024.847.073 1.27.26 2.067.984 3.1 2.173 3.1.162 0 .333-.016.512-.048.472-.114 1.164-.497 2.076-1.148.895-.65 1.61-.976 2.148-.976.212 0 .415.065.61.195.505.31.757.79.757 1.44 0 .05-.008.114-.024.196-.114.78-.79 1.587-2.027 2.417-1.513 1.025-3.019 1.538-4.516 1.538-2.018-.017-3.459-.936-4.322-2.76-1.432 1.759-3.393 2.646-5.883 2.662a6.08 6.08 0 0 1-1.66-.22c-2.849-.862-4.273-3.995-4.273-9.4 0-2.603.285-5.224.855-7.86.032-.13.065-.269.097-.416.505-1.79 1.221-2.685 2.149-2.685 1.155.016 1.75.651 1.782 1.904 0 .26-.073.838-.22 1.734-.57 3.646-.854 6.282-.854 7.91 0 3.385.862 5.094 2.588 5.127 2.23-.017 3.776-3.02 4.638-9.009Zm8.545 5.737c0-.553.033-1.139.098-1.758.342-2.783 1.22-5.257 2.637-7.421 1.725-2.653 3.8-3.98 6.225-3.98.651 0 1.278.081 1.88.244 2.148.619 3.223 2.132 3.223 4.541 0 .18-.008.366-.025.562-.163 2.18-1.14 4.012-2.93 5.493-1.757 1.465-3.8 2.197-6.127 2.197-.44 0-.871-.04-1.294-.122a8.252 8.252 0 0 0-.05 1.026c0 .944.164 1.676.49 2.197.439.667 1.342 1.058 2.71 1.172a8.14 8.14 0 0 0 1.781-.196c1.026-.244 2.238-.822 3.638-1.733.911-.602 1.554-.903 1.929-.903.211 0 .431.065.659.195.52.31.781.757.781 1.343 0 .195-.04.407-.122.634-.44 1.058-1.758 2.06-3.955 3.003-2.034.88-3.825 1.319-5.371 1.319a8.608 8.608 0 0 1-1.636-.147c-3.027-.618-4.54-3.173-4.54-7.666Zm7.837-9.326c-1.481.993-2.645 2.881-3.491 5.664a5 5 0 0 0 1.172.147c1.35 0 2.53-.415 3.54-1.245 1.123-.912 1.684-1.994 1.684-3.247 0-1.254-.398-1.888-1.196-1.905-.57.017-1.14.212-1.709.586Zm7.3 14.258 2.075-15.674a9.96 9.96 0 0 1 .122-.781c.293-1.4.928-2.1 1.904-2.1.18 0 .358.017.538.05.748.178 1.123.886 1.123 2.123 0 .18-.017.488-.05.928-.015.293-.024.52-.024.683a1.28 1.28 0 0 1 .122-.195c1.205-2.132 2.922-3.198 5.152-3.198.797 0 1.53.236 2.197.708.993.732 1.49 1.7 1.49 2.905 0 .195-.009.66-.025 1.392-.016 1.66-.025 2.978-.025 3.955 0 3.32.098 5.273.294 5.86.048.13.097.268.146.414.456 1.237 1.099 1.856 1.929 1.856.146 0 .309-.017.488-.05.488-.097 1.188-.48 2.1-1.147.895-.634 1.61-.952 2.148-.952.212 0 .415.057.61.171.505.293.757.773.757 1.44-.098.798-.781 1.677-2.05 2.637C93.693 37.496 92.188 38 90.674 38c-1.22 0-2.254-.334-3.1-1.001-1.742-1.4-2.613-4.468-2.613-9.204 0-.342.008-.895.024-1.66.033-.798.05-1.465.05-2.002 0-1.742-.196-2.637-.587-2.686a.801.801 0 0 0-.244.05c-.928.34-2.116 2.188-3.564 5.541-1.27 2.946-2.084 5.396-2.442 7.349l-.049.708a3.88 3.88 0 0 1-.488 1.611c-.472.781-1.058 1.172-1.758 1.172-.195 0-.39-.04-.586-.122-.765-.358-1.147-1.123-1.147-2.295Zm20.508-24.487h.244a69.6 69.6 0 0 0 2.466.049l1.074-7.544c.065-.505.146-.928.244-1.27.293-1.074.887-1.611 1.782-1.611.179 0 .358.016.537.048.749.18 1.123.888 1.123 2.125 0 .39-.325 3.14-.976 8.252h2.563c.44 0 .822.089 1.148.268.569.342.854.846.854 1.514 0 .293-.073.57-.219.83-.375.618-.985.928-1.831.928h-3.028c-1.27 9.765-1.904 15.242-1.904 16.43 0 .749.154 1.449.464 2.1.456.976 1.058 1.465 1.806 1.465.179 0 .367-.025.562-.074.439-.114 1.066-.488 1.88-1.123.797-.634 1.465-.952 2.002-.952.228 0 .447.049.659.147.586.293.879.74.879 1.342-.049.847-.676 1.726-1.88 2.637-1.465 1.058-3.019 1.587-4.663 1.587-1.612-.016-2.93-.692-3.955-2.026-1.042-1.416-1.563-3.198-1.563-5.347 0-.472.643-5.867 1.929-16.186h-2.49c-1.123-.098-1.685-.684-1.685-1.758 0-.293.049-.562.147-.806.293-.684.903-1.025 1.83-1.025Zm14.282 8.105c0 .472-.081 1.49-.244 3.052-.505 4.622-.757 7.495-.757 8.618 0 .749.155 1.449.464 2.1.456.976 1.066 1.465 1.831 1.465.163 0 .334-.017.513-.05.472-.113 1.155-.496 2.05-1.147.879-.65 1.587-.976 2.124-.976.228 0 .456.081.684.244.456.325.684.757.684 1.294-.066.83-.708 1.709-1.929 2.636-1.498 1.042-3.068 1.563-4.712 1.563-1.384 0-2.531-.48-3.442-1.44-1.368-1.465-2.051-3.793-2.051-6.983 0-1.09.22-3.223.659-6.396a237.3 237.3 0 0 0 .415-3.272l.049-.44c.26-1.627.928-2.44 2.002-2.44.179 0 .358.015.537.048.749.18 1.123.887 1.123 2.124Zm-2.783-6.396c0-.293.065-.57.195-.83.326-.635.855-.953 1.587-.953.293 0 .57.066.83.196.635.325.952.854.952 1.587 0 .293-.065.57-.195.83-.326.635-.855.952-1.587.952a1.83 1.83 0 0 1-.83-.195c-.635-.326-.952-.855-.952-1.587Zm9.399 13.086h.244c.993.016 1.88.024 2.661.024l1.539-10.278c1.481-9.896 4.475-14.852 8.984-14.869.895 0 1.676.139 2.344.416 1.757.716 2.636 2.237 2.636 4.565 0 .863-.105 1.766-.317 2.71-.749 3.402-2.686 6.942-5.811 10.62-1.969 2.328-3.808 4.045-5.517 5.151l-.244 1.685h2.514c.407 0 .773.081 1.099.244.602.31.903.822.903 1.538 0 .293-.073.578-.219.855-.375.602-.977.903-1.807.903h-3.003l-1.147 8.057c4.264-3.24 6.543-4.989 6.835-5.25.652-.52 1.278-.78 1.88-.78.212 0 .432.073.66.22.472.325.708.74.708 1.244-.017.733-.464 1.49-1.343 2.27-1.725 1.433-4.875 3.907-9.448 7.423l-1.172 8.105c-.244 1.628-.855 2.913-1.831 3.858-1.091 1.025-2.434 1.538-4.029 1.538-1.481 0-2.791-.562-3.93-1.685-1.14-1.123-1.709-2.393-1.709-3.809 0-1.367.317-2.498.952-3.393.374-.521 1.107-1.196 2.197-2.026.016-.017.073-.057.171-.123 1.058-.797 3.027-2.278 5.908-4.443l1.685-11.206h-2.393a3.41 3.41 0 0 1-.415-.024c-1.058-.13-1.587-.708-1.587-1.734 0-.244.033-.472.098-.683.277-.75.911-1.123 1.904-1.123Zm13.477-21.436c-1.384.049-2.564 1.196-3.54 3.442-.847 1.986-1.587 5.25-2.222 9.79a32.31 32.31 0 0 1-.22 1.563c1.091-1.042 2.222-2.376 3.394-4.004 2.637-3.646 3.955-6.73 3.955-9.253 0-.13-.033-.285-.098-.464-.244-.716-.667-1.074-1.269-1.074Zm-13.99 44.336.415-2.979c-1.692 1.286-2.587 1.978-2.685 2.076-1.172.862-1.766 1.692-1.782 2.49 0 .277.049.537.146.781.277.716.79 1.074 1.538 1.074.293 0 .57-.048.83-.146.798-.326 1.311-1.424 1.538-3.296Zm19.239-31.592c1.041.016 1.579.651 1.611 1.904 0 .245-.065.774-.195 1.587-.554 3.63-.83 6.258-.83 7.886 0 3.516.895 5.29 2.685 5.322a2.449 2.449 0 0 0 1.123-.39c1.514-.977 2.653-4.102 3.418-9.375.196-1.367.334-2.89.415-4.566.017-.162.025-.26.025-.293.016-.114.032-.22.049-.317.195-1.09.805-1.636 1.831-1.636.195 0 .39.033.586.098.732.26 1.098.96 1.098 2.1 0 .13-.008.309-.024.537v.293l-2.466 17.993c3.922-2.946 6.234-4.72 6.933-5.322.635-.521 1.262-.782 1.88-.782.212 0 .432.065.66.196.472.309.708.724.708 1.245-.017.765-.464 1.521-1.343 2.27-1.644 1.4-4.818 3.898-9.522 7.495l-1.098 8.032c-.277 1.921-1.156 3.378-2.637 4.37-1.042.684-2.108 1.026-3.198 1.026-1.498 0-2.824-.562-3.98-1.685-1.123-1.123-1.684-2.384-1.684-3.784 0-1.48.366-2.685 1.098-3.613.375-.472 1.131-1.131 2.271-1.978.146-.162 2.099-1.635 5.859-4.418a220.7 220.7 0 0 1 .659-4.273c-.944.44-2.034.66-3.271.66a6.105 6.105 0 0 1-1.66-.22c-2.849-.863-4.273-3.996-4.273-9.4.017-2.686.301-5.298.855-7.837.455-1.97 1.261-3.01 2.417-3.125Zm4.077 32.349.415-3.003c-1.677 1.27-2.58 1.961-2.71 2.075-1.172.912-1.766 1.742-1.782 2.49 0 .277.049.545.146.806.277.716.798 1.074 1.563 1.074.293 0 .553-.049.781-.146.814-.31 1.343-1.408 1.587-3.296Z"/>
</svg>
