<svg xmlns="http://www.w3.org/2000/svg" width="50" height="50" fill="none" viewBox="0 0 50 50">
  <g clip-path="url(#a)">
    <rect width="50" height="50" fill="#FFC43B" rx="19"/>
    <path fill="#fff" d="M22.262 27.75h3.026a1.25 1.25 0 0 0 .887-.363l4.475-4.474a1.25 1.25 0 0 0 0-1.763l-3.025-3a1.25 1.25 0 0 0-1.762 0l-4.476 4.475a1.25 1.25 0 0 0-.375.875v3a1.25 1.25 0 0 0 1.25 1.25Zm1.25-3.75 3.238-3.2L28 22.05l-3.225 3.2h-1.25L23.513 24Zm13.238 5H35.5V16.5h1.25a1.25 1.25 0 0 0 0-2.5h-22.5a1.25 1.25 0 0 0 0 2.5h1.25V29h-1.25a1.25 1.25 0 0 0 0 2.5h10v1.438l-5.688 3.75A1.25 1.25 0 0 0 19.25 39c.246.003.486-.072.688-.212l4.312-2.85v1.812a1.25 1.25 0 0 0 2.5 0v-1.813l4.313 2.85c.2.142.441.216.687.213a1.25 1.25 0 0 0 .688-2.288l-5.688-3.75V31.5h10a1.25 1.25 0 0 0 0-2.5ZM33 29H18V16.5h15V29Z"/>
  </g>
  <defs>
    <clipPath id="a">
      <path fill="#fff" d="M0 0h50v50H0z"/>
    </clipPath>
  </defs>
</svg>
