<svg xmlns="http://www.w3.org/2000/svg" width="50" height="50" fill="none" viewBox="0 0 50 50">
  <g clip-path="url(#a)">
    <rect width="50" height="50" fill="#FF3B53" rx="19"/>
    <g clip-path="url(#b)">
      <path fill="#fff" d="M25.5 14.563a.52.52 0 1 0 0 1.04.52.52 0 0 0 0-1.04ZM30.708 13H20.292a2.605 2.605 0 0 0-2.605 2.604v19.792A2.605 2.605 0 0 0 20.293 38h10.416a2.605 2.605 0 0 0 2.605-2.604V15.604A2.605 2.605 0 0 0 30.707 13Zm1.563 22.396a1.563 1.563 0 0 1-1.563 1.562H20.292a1.563 1.563 0 0 1-1.563-1.562V31.75h13.542v3.646Zm0-4.688H18.729V17.167h13.542v13.541Zm0-14.583H18.729v-.52a1.563 1.563 0 0 1 1.563-1.563h10.416a1.563 1.563 0 0 1 1.563 1.562v.521ZM25.5 35.917a1.563 1.563 0 1 0 0-3.126 1.563 1.563 0 0 0 0 3.126Zm0-2.084a.521.521 0 1 1 0 1.043.521.521 0 0 1 0-1.043Z"/>
    </g>
  </g>
  <defs>
    <clipPath id="a">
      <path fill="#fff" d="M0 0h50v50H0z"/>
    </clipPath>
    <clipPath id="b">
      <path fill="#fff" d="M13 13h25v25H13z"/>
    </clipPath>
  </defs>
</svg>
